<?xml version="1.0" standalone="no"?>
<!DOCTYPE svg PUBLIC "-//W3C//DTD SVG 20010904//EN"
 "http://www.w3.org/TR/2001/REC-SVG-20010904/DTD/svg10.dtd">
<svg version="1.0" xmlns="http://www.w3.org/2000/svg"
 width="447.000000pt" height="166.000000pt" viewBox="0 0 447.000000 166.000000"
 preserveAspectRatio="xMidYMid meet">

<g transform="translate(0.000000,166.000000) scale(0.100000,-0.100000)"
fill="#000000" stroke="none">
<path d="M2218 1650 c-72 -22 -118 -84 -118 -160 0 -59 21 -97 96 -170 l65
-65 78 81 c59 61 80 89 85 118 15 78 -25 154 -98 187 -44 20 -66 22 -108 9z"/>
<path d="M1622 1322 l-153 -147 3 -480 3 -480 24 -53 c58 -128 203 -184 357
-137 84 25 81 19 61 141 -10 58 -21 112 -23 119 -3 7 -21 12 -41 11 -64 -2
-63 -16 -63 612 0 309 -3 562 -7 562 -5 -1 -77 -67 -161 -148z"/>
<path d="M117 1285 c-56 -20 -84 -51 -103 -113 -28 -99 -16 -121 167 -307 90
-92 160 -172 164 -187 10 -40 -13 -72 -140 -198 -190 -188 -222 -244 -191
-338 31 -91 115 -142 213 -127 46 6 55 14 218 176 154 152 174 169 205 169 30
0 50 -16 194 -160 162 -160 204 -190 266 -190 64 0 136 45 167 105 20 38 20
122 0 160 -9 17 -81 95 -162 175 -143 142 -175 181 -175 216 0 9 76 94 169
188 138 140 171 178 180 212 31 116 -61 235 -181 234 -59 -1 -104 -33 -267
-187 -212 -202 -185 -203 -390 2 -190 188 -229 208 -334 170z"/>
<path d="M2190 1072 c-22 -12 -44 -35 -58 -63 l-23 -44 3 -427 c3 -415 4 -427
24 -455 39 -53 83 -75 140 -71 60 5 105 33 128 82 14 30 16 88 16 463 0 409
-1 429 -20 461 -42 68 -136 93 -210 54z"/>
<path d="M2659 1074 c-71 -21 -72 -25 -47 -157 l21 -115 35 5 c63 11 62 14 62
-419 l0 -388 160 0 160 0 0 313 c0 178 5 331 11 357 38 167 268 206 349 60
l25 -45 3 -342 3 -343 159 0 159 0 3 342 c3 387 5 396 80 446 46 30 128 40
181 23 45 -15 93 -68 106 -118 7 -23 11 -168 11 -365 l0 -328 165 0 165 0 0
329 c0 362 -8 441 -57 541 -37 75 -109 144 -191 183 -65 31 -71 32 -197 32
-119 -1 -136 -3 -195 -28 -36 -15 -89 -45 -119 -68 l-54 -41 -36 35 c-80 75
-169 107 -302 107 -103 0 -187 -23 -273 -75 l-60 -36 -25 32 c-37 48 -113 79
-191 78 -36 0 -86 -7 -111 -15z"/>
</g>
</svg>
